#!OML:ASF F:\VICON\USERDATA\INSTALL\rory3\rory3.ASF
:FULLY-SPECIFIED
:DEGREES
80
root 0.5682995774322267 17.9871492880422 34.08022259396537 2.5443868801449714 -0.36576535022017287 0.6548718767227879
lfemur -5.245007133812875 0.16918332684507364 -22.147792429940406
ltibia 61.520337403332654
lfoot 3.789503887311904 -11.479448666553967
ltoes -7.8267562313305925
rfemur -26.270381128293224 2.7778569885567923 27.126373298333686
rtibia 57.87751906905533
rfoot -4.931769502255827 -5.640177761064925
rtoes -5.403558895266409
lowerback 12.476038249980103 -1.0342784360487105 -0.8960719561841326
upperback -0.800541240251704 -0.7746417066618496 1.8887070073636107
thorax -8.089164206504412 0.2746096898590178 2.2820322559615565
lowerneck -18.79944061721082 -3.198298193530722 -2.4681409222720343
upperneck 14.204913849866157 -4.446908460643376 2.5367941749544025
head 7.528229846992933 -2.0881984687696273 0.7622197951389476
lclavicle 3.0724827264545893e-16 -4.3067221206564905e-16
lhumerus -42.35788957435085 -15.715023939388296 98.4377313591195
lradius 110.1222412532783
lwrist 32.14402801976277
lhand -25.808323278543586 3.055253619990146
lfingers 7.125020000000001
lthumb 0.7889086116480679 32.78663139096957
rclavicle 3.0728743657241976e-16 -4.3064985682852227e-16
rhumerus -58.004845359279514 5.580734586581894 -95.61915052275386
rradius 103.36021465852788
rwrist -19.491609113363644
rhand -18.491995539144806 37.559124133100234
rfingers 7.125020000000001
rthumb 7.8242324724304115 7.606409867748852
81
root 0.5751381769469255 17.931488278095518 35.98639758076196 2.231424778787869 -0.2865842593546568 0.8847554074826893
lfemur -6.859188130492322 0.4317953708986274 -21.685649912081683
ltibia 65.38824307818174
lfoot 1.810199946948581 -11.048313801141115
ltoes -7.969713454719571
rfemur -24.10583683676068 3.4322731488818308 28.031759824058216
rtibia 60.295423661726
rfoot -5.341085131040971 -5.890313211694872
rtoes -5.427345619654508
lowerback 12.801982593220053 -0.8723066735163084 -0.6710398276728846
upperback -0.693274368889677 -0.6137594278962399 1.9170907234554266
thorax -8.030881751717256 0.4501835250001235 2.337285616513507
lowerneck -18.997974882227897 -3.334547995213798 -2.4982012972689613
upperneck 14.10137706443965 -4.458110944239649 2.512557625539641
head 7.524379663612539 -2.080706783923321 0.7555344913476063
lclavicle 3.0724827264545893e-16 -4.3067221206564905e-16
lhumerus -43.23161238272137 -15.422755572853486 98.44633048328241
lradius 109.73315463366478
lwrist 32.110820434276484
lhand -25.788975092089245 2.9987627400405925
lfingers 7.125020000000001
lthumb 0.7530004827964912 32.774089151920556
rclavicle 3.0728743657241976e-16 -4.3064985682852227e-16
rhumerus -57.421072974732596 5.306174143842593 -95.34292215718696
rradius 103.10789676687989
rwrist -19.472460843638036
rhand -18.43545509760961 37.62563888521761
rfingers 7.125020000000001
rthumb 7.767872651118036 7.51561104720743
82
root 0.5561254971043996 17.81491157649741 35.6648293927206 1.7743528386789436 -0.4942203132788735 0.8671596818891814
lfemur -6.983851153687182 1.0279285701745464 -20.750082289231003
ltibia 68.29918751812963
lfoot 2.234964211310986 -9.931813381161133
ltoes -7.90702723921779
rfemur -21.431090057387962 3.8715819218736938 28.634238030279217
rtibia 62.70996658357214
rfoot -5.3050239925166895 -5.883410259020155
rtoes -5.713584390995697
lowerback 13.152201795214639 -0.6975766006383172 -0.392753147684886
upperback -0.5566588758653539 -0.34476232337113055 1.9519683108468957
thorax -8.107571784423733 0.4746963760340437 1.972996806833124
lowerneck -18.968390111360687 -3.3208266583248944 -2.44173805561114
upperneck 13.997121969688207 -4.471522938444034 2.4968207526085733
head 7.514741981845068 -2.0768128413052533 0.7491714799651753
lclavicle 3.0724827264545893e-16 -4.3067221206564905e-16
lhumerus -44.34466402447332 -15.010440025816223 98.461408758378
lradius 109.82193690944524
lwrist 32.08523336865068
lhand -25.737895501204605 3.0931405015161983
lfingers 7.125020000000001
lthumb 0.7103729233698064 32.68774628846012
rclavicle 3.0728743657241976e-16 -4.3064985682852227e-16
rhumerus -56.5296773571127 5.084142185051152 -95.14095893593752
rradius 102.84632355931303
rwrist -19.44310219411107
rhand -18.45927130770352 37.60503871628742
rfingers 7.125020000000001
rthumb 7.801333257198744 7.557839771233643
83
root 0.5484512969617752 17.7282854843352 37.334740361352324 1.4645068920065711 -0.40979333875114954 0.9514696908632414
lfemur -9.32823937621336 1.4721392534425428 -20.16829632582402
ltibia 70.4599328155026
lfoot 2.5574409299790988 -9.293531385918875
ltoes -8.045841180425667
rfemur -19.721057161250595 4.209299685794753 29.388902883929298
rtibia 64.61252354461057
rfoot -5.005322630627889 -5.64708515155084
rtoes -5.620840205320184
lowerback 13.476352759169197 -0.5228704420733165 -0.0794477886229612
upperback -0.4230816435660639 -0.045610009644985405 1.9900709335689641
thorax -8.115862541153044 0.6267904843130111 1.793834376977996
lowerneck -19.130119795162763 -3.4463426518438984 -2.4327195572841043
upperneck 13.872731739551845 -4.561842348767096 2.459693485492079
head 7.508849803653789 -2.069840589175471 0.7472440021828315
lclavicle 3.0724827264545893e-16 -4.3067221206564905e-16
lhumerus -44.94537876014443 -14.460169694558429 98.5526355028353
lradius 109.65479733350645
lwrist 32.25932411722763
lhand -25.69592020638043 3.1424232649856902
lfingers 7.125020000000001
lthumb 0.6075177926066988 32.640686476209154
rclavicle 3.0728743657241976e-16 -4.3064985682852227e-16
rhumerus -55.24256033552472 4.98269610524391 -95.00741010797468
rradius 102.69375311366468
rwrist -19.38055111028277
rhand -18.444400710699263 37.65749945778523
rfingers 7.125020000000001
rthumb 7.73661429581338 7.476984386501138
